<?xml version="1.0" encoding="UTF-8" standalone="no"?>
<svg
   xmlns:dc="http://purl.org/dc/elements/1.1/"
   xmlns:cc="http://creativecommons.org/ns#"
   xmlns:rdf="http://www.w3.org/1999/02/22-rdf-syntax-ns#"
   xmlns:svg="http://www.w3.org/2000/svg"
   xmlns="http://www.w3.org/2000/svg"
   xmlns:sodipodi="http://sodipodi.sourceforge.net/DTD/sodipodi-0.dtd"
   xmlns:inkscape="http://www.inkscape.org/namespaces/inkscape"
   width="24"
   height="24"
   viewBox="0 0 24 24"
   fill="none"
   id="svg2"
   version="1.1"
   inkscape:version="0.91 r13725"
   sodipodi:docname="nfl_icon.svg">
  <metadata id="metadata14">
    <rdf:RDF>
      <cc:Work rdf:about="">
        <dc:format>image/svg+xml</dc:format>
        <dc:type rdf:resource="http://purl.org/dc/dcmitype/StillImage"/>
        <dc:title>NFL SailingYacht Icon — OpenCPN</dc:title>
      </cc:Work>
    </rdf:RDF>
  </metadata>
  <defs id="defs12"/>
  <sodipodi:namedview
     pagecolor="#ffffff"
     bordercolor="#666666"
     inkscape:pageopacity="0"
     id="namedview10"
     showgrid="false"
     inkscape:zoom="9.8333333"
     inkscape:cx="12"
     inkscape:cy="12"
     inkscape:current-layer="svg2"/>

  <!-- Locatiepin -->
  <path
     id="pin"
     d="M 12,2 C 8.5,2 5.5,5 5.5,9 C 5.5,14 12,22 12,22 C 12,22 18.5,14 18.5,9 C 18.5,5 15.5,2 12,2 Z"
     fill="currentColor"
     fill-opacity="0.2"
     stroke="currentColor"
     stroke-width="1.5"
     stroke-linejoin="round"/>

  <!-- Font Awesome fa-sailboat, geschaald naar de pin -->
  <g id="boat" transform="translate(7.5, 5) scale(0.0156)" fill="currentColor">
    <path d="M256 16c0-7 4.5-13.2 11.2-15.3s13.9 .4 17.9 6.1l224 320c3.4 4.9 3.8 11.3 1.1 16.6s-8.2 8.6-14.2 8.6l-224 0c-8.8 0-16-7.2-16-16l0-320zM212.1 96.5c7 1.9 11.9 8.2 11.9 15.5l0 224c0 8.8-7.2 16-16 16L80 352c-5.7 0-11-3-13.8-8s-2.9-11-.1-16l128-224c3.6-6.3 11-9.4 18-7.5zM5.7 404.3C2.8 394.1 10.5 384 21.1 384l533.8 0c10.6 0 18.3 10.1 15.4 20.3l-4 14.3C550.7 473.9 500.4 512 443 512L133 512C75.6 512 25.3 473.9 9.7 418.7l-4-14.3z"/>
  </g>

</svg>
